HIERARCHY
ROOT Hips
{
	OFFSET 0.00000 0.00000 0.00000
	CHANNELS 6 Xposition Yposition Zposition Yrotation Zrotation Xrotation 
	JOINT Lumbar
	{
		OFFSET 0 0 0
		CHANNELS 3 Zrotation Xrotation Yrotation
		JOINT Neck
		{
			OFFSET 0.00 0.2701 0.00
			CHANNELS 3 Zrotation Xrotation Yrotation
			End Site
			{
				OFFSET 0.00 0.1379 0.00
			}
		}
		JOINT RightShoulder
		{
			OFFSET 0.0119 0.2289 0.1181
			CHANNELS 3 Zrotation Xrotation Yrotation
			JOINT RightElbow
			{
				OFFSET 0.00 -0.1475 0.00
				CHANNELS 2 Zrotation Yrotation
				JOINT RightWrist
				{
					OFFSET 0.00 -0.1605 0.00
					CHANNELS 2 Zrotation Xrotation
					End Site
					{
						OFFSET 0.0040 -0.1068 0.0006
					}
				}
			}
		}
		JOINT LeftShoulder
		{
			OFFSET 0.0119 0.2289 -0.1181
			CHANNELS 3 Zrotation Xrotation Yrotation
			JOINT LeftElbow
			{
				OFFSET 0.00 -0.1475 0.00
				CHANNELS 2 Zrotation Yrotation
				JOINT LeftWrist
				{
					OFFSET 0.00 -0.1605 0.00
					CHANNELS 2 Zrotation Xrotation
					End Site
					{
						OFFSET 0.0040 -0.1068 -0.0006
					}
				}
			}
		}
	}
	JOINT RightHip
	{
		OFFSET 0.0316 -0.0424 0.0458
		CHANNELS 3 Zrotation Xrotation Yrotation
		JOINT RightKnee
		{
			OFFSET 0.00 -0.2438 0.00
			CHANNELS 1 Zrotation
			JOINT RightAnkle
			{
				OFFSET 0.00 -0.2449 0.00
				CHANNELS 3 Zrotation Xrotation Yrotation
				End Site
				{
					OFFSET 0.1237 -0.0542 0.0051
				}
			}
		}
	}
	JOINT LeftHip
	{
		OFFSET 0.0316 -0.0424 -0.0458
		CHANNELS 3 Zrotation Xrotation Yrotation
		JOINT LeftKnee
		{
			OFFSET 0.00 -0.2438 0.00
			CHANNELS 1 Zrotation
			JOINT LeftAnkle
			{
				OFFSET 0.00 -0.2449 0.00
				CHANNELS 3 Zrotation Xrotation Yrotation
				End Site
				{
					OFFSET 0.1237 -0.0542 -0.0051
				}
			}
		}
	}
}
MOTION
Frames: 26
Frame Time: 0.02
-0 0.57926 0 181.41711 0 -3.76499 8.39406 3.36298 -4.73668 -28.10305 6.73456 6.30127 22.13207 -21.69359 19.02463 10.8661 82.22595 -2.27276 -4.25177 20.6578 4.36942 -10.52245 7.00621 -80.60917 -3.29927 2.19363 -4.94539 8.56399 1.40309 -7.55227 -9.11947 -1.83726 -6.94881 -7.81105 2.63956 12.71957 -2.62223 -4.63961 2.40152 6.12012
0.00022 0.57922 -1e-05 181.37899 0 -3.76394 8.34726 3.36123 -4.63562 -28.20127 6.69234 6.28545 21.77487 -21.61142 18.48637 10.55164 82.21345 -2.1487 -3.95142 20.37103 4.44944 -9.09395 6.76951 -80.56743 -3.26864 2.05676 -4.86672 8.56533 1.51547 -7.66747 -9.07022 -1.87286 -6.9999 -7.84021 2.6267 12.8493 -2.53385 -4.66006 2.38552 6.03058
0.00044 0.57918 -3e-05 181.34137 0 -3.76289 8.30067 3.35943 -4.53551 -28.29943 6.65025 6.26951 21.42001 -21.52979 17.95034 10.23901 82.20096 -2.02552 -3.65305 20.0871 4.52912 -7.67822 6.53494 -80.5259 -3.23824 1.92095 -4.78849 8.56675 1.62703 -7.78189 -9.02143 -1.90816 -7.05085 -7.86909 2.61401 12.97778 -2.446 -4.68052 2.36964 5.94175
0.00066 0.57913 -4e-05 181.30513 0 -3.76189 8.25451 3.35734 -4.43779 -28.39781 6.60864 6.25343 21.06982 -21.44958 17.41697 9.93005 82.1887 -1.90476 -3.35991 19.80965 4.60808 -6.29602 6.30576 -80.48472 -3.20821 1.78748 -4.71114 8.56852 1.73696 -7.89474 -8.97378 -1.94268 -7.10196 -7.8975 2.60181 13.10264 -2.35875 -4.70127 2.35402 5.85501
0.00088 0.57909 -5e-05 181.26124 0 -3.7607 8.20612 3.35669 -4.32695 -28.49447 6.56489 6.23865 20.69344 -21.36195 16.86832 9.60096 82.17559 -1.77131 -3.03933 19.49534 4.69071 -4.73184 6.047 -80.44158 -3.17594 1.64093 -4.62898 8.56846 1.8562 -8.01641 -8.91985 -1.9814 -7.15246 -7.92885 2.58694 13.24681 -2.26754 -4.72055 2.33695 5.75739
0.00109 0.57905 -7e-05 181.23382 0 -3.75988 8.16246 3.35305 -4.24427 -28.59504 6.52544 6.22078 20.37384 -21.29006 16.35335 9.31526 82.16405 -1.66477 -2.77694 19.26102 4.76557 -3.55706 5.85179 -80.40268 -3.14863 1.52264 -4.55717 8.57224 1.95517 -8.11899 -8.87942 -2.01117 -7.20404 -7.95362 2.57779 13.34991 -2.18532 -4.74284 2.32302 5.68275
0.0013 0.57905 -0.00018 181.25077 0 -3.76045 8.13142 3.34042 -4.23725 -28.7061 6.4994 6.19654 20.19933 -21.26153 15.91392 9.14182 82.15865 -1.63286 -2.67535 19.23485 4.81975 -3.44034 5.82698 -80.37467 -3.13316 1.4783 -4.51208 8.58729 2.00291 -8.17257 -8.87518 -2.01638 -7.26169 -7.96325 2.58436 13.33926 -2.12212 -4.77499 2.3172 5.67279
0.00151 0.57905 -0.00031 181.28452 0 -3.76133 8.10515 3.32493 -4.25901 -28.8211 6.47738 6.16874 20.08417 -21.24888 15.51138 9.01345 82.15453 -1.62809 -2.63252 19.2918 4.866 -3.72009 5.8673 -80.35124 -3.12304 1.46325 -4.47771 8.60608 2.02954 -8.20629 -8.88477 -2.0125 -7.32001 -7.96572 2.59673 13.28726 -2.06894 -4.80993 2.31461 5.6858
0.00171 0.57905 -0.00043 181.31144 0 -3.76185 8.07699 3.3112 -4.269 -28.93486 6.45251 6.14113 19.94916 -21.22903 15.1026 8.8691 82.14856 -1.61057 -2.56242 19.31893 4.91545 -3.82923 5.881 -80.32603 -3.11162 1.43735 -4.43965 8.62274 2.06254 -8.24674 -8.88877 -2.01271 -7.37598 -7.9695 2.60656 13.25434 -2.01493 -4.84259 2.31091 5.68744
0.00192 0.57905 -0.00055 181.33523 0 -3.76329 8.04788 3.29544 -4.2736 -29.04701 6.43202 6.1196 19.78384 -21.20919 14.64885 8.70551 82.14776 -1.59455 -2.49411 19.3123 4.96659 -3.89687 5.8818 -80.29886 -3.09533 1.40085 -4.39671 8.64128 2.10837 -8.29681 -8.88987 -2.0132 -7.44021 -7.98144 2.61604 13.22 -1.94539 -4.87944 2.3058 5.69294
0.00213 0.57906 -0.00066 181.36917 0 -3.76288 8.02163 3.28334 -4.29611 -29.16251 6.40327 6.08448 19.6961 -21.193 14.29831 8.59302 82.13675 -1.58216 -2.43678 19.39598 5.01234 -4.14663 5.92537 -80.2777 -3.09059 1.39363 -4.36634 8.65675 2.12344 -8.32222 -8.90026 -2.01081 -7.48785 -7.97475 2.62752 13.17903 -1.91036 -4.90835 2.30427 5.69596
0.00233 0.5791 -0.00076 181.43011 0 -3.75758 8.00409 3.28103 -4.36242 -29.29446 6.35152 6.01341 19.80497 -21.18364 14.21669 8.60791 82.09509 -1.57046 -2.38901 19.7065 5.04505 -4.78899 6.06764 -80.26462 -3.11529 1.45822 -4.36921 8.66348 2.05278 -8.28388 -8.93298 -2.00318 -7.48785 -7.91803 2.64409 13.12794 -1.96985 -4.91379 2.31281 5.68562
0.00255 0.57916 -0.00084 181.50002 0 -3.7504 7.98888 3.28272 -4.44551 -29.42806 6.29118 5.92866 19.99046 -21.17726 14.23899 8.67325 82.04349 -1.56196 -2.35152 20.10541 5.07267 -5.60338 6.25142 -80.25864 -3.15162 1.55167 -4.38407 8.66704 1.95459 -8.22166 -8.97448 -1.99232 -7.47295 -7.84298 2.66232 13.072 -2.06328 -4.91135 2.32465 5.67214
0.00276 0.57922 -0.00093 181.56391 0 -3.74384 7.97127 3.28317 -4.52007 -29.55564 6.23426 5.84964 20.14284 -21.16908 14.21829 8.71717 81.9979 -1.55376 -2.31339 20.46532 5.10265 -6.34777 6.41843 -80.25445 -3.18339 1.63305 -4.39278 8.67143 1.87094 -8.17051 -9.01198 -1.98336 -7.46409 -7.77645 2.67909 13.01949 -2.14026 -4.91308 2.33433 5.66069
0.00295 0.57927 -0.00102 181.63698 0 -3.7381 7.95947 3.28092 -4.59955 -29.70586 6.17951 5.77242 20.28993 -21.16333 14.18091 8.75601 81.94618 -1.53913 -2.25997 20.82333 5.13203 -7.07161 6.57868 -80.22989 -3.21233 1.71078 -4.40511 8.67788 1.77153 -8.11713 -9.05029 -1.97457 -7.45222 -7.70851 2.6989 12.96019 -2.22247 -4.91237 2.34689 5.64754
0.0032 0.57933 -0.00109 181.69238 0 -3.73042 7.93607 3.2855 -4.67228 -29.80892 6.11815 5.6884 20.46564 -21.15301 14.20264 8.81719 81.90471 -1.53827 -2.24047 21.20504 5.16169 -7.87377 6.76228 -80.24856 -3.2498 1.80289 -4.41225 8.68007 1.70679 -8.06375 -9.08845 -1.96187 -7.45075 -7.6397 2.71287 12.91461 -2.301 -4.91493 2.35424 5.63683
0.00359 0.57939 -0.00113 181.70049 0 -3.71594 7.87994 3.30593 -4.72296 -29.78443 6.04066 5.58772 20.69987 -21.12938 14.36074 8.92454 81.89533 -1.57474 -2.3085 21.63129 5.19245 -8.84905 6.99763 -80.39224 -3.3085 1.92496 -4.40512 8.66397 1.67282 -8.00984 -9.12754 -1.96602 -7.41333 -7.56917 2.70863 12.90679 -2.36718 -4.92749 2.3459 5.63406
0.00404 0.57945 -0.00114 181.68977 0 -3.69989 7.81209 3.33342 -4.76602 -29.71183 5.95685 5.48087 20.9603 -21.10091 14.57498 9.05302 81.89638 -1.62484 -2.4107 22.07761 5.22395 -9.89483 7.25517 -80.57787 -3.37529 2.06088 -4.39174 8.64491 1.68637 -7.95804 -9.1657 -1.96275 -7.39792 -7.49914 2.69871 12.91339 -2.4273 -4.94381 2.33226 5.63364
0.00446 0.5795 -0.00116 181.68514 0 -3.68587 7.74962 3.35914 -4.81187 -29.65923 5.87582 5.37778 21.20958 -21.07456 14.76406 9.17369 81.89177 -1.66843 -2.49934 22.51408 5.25564 -10.90774 7.50389 -80.73933 -3.43796 2.19211 -4.37921 8.63213 1.7276 -7.90955 -9.20165 -1.94359 -7.41939 -7.43141 2.69245 12.91444 -2.48609 -4.959 2.32133 5.63175
0.00488 0.57957 -0.00118 181.69114 0 -3.66642 7.68686 3.37927 -4.86097 -29.61453 5.79463 5.27044 21.45833 -21.04879 14.95464 9.28857 81.89063 -1.7133 -2.58006 22.95752 5.28462 -11.93278 7.74882 -80.92227 -3.50277 2.31761 -4.37552 8.59894 1.56728 -7.84219 -9.24804 -2.00004 -7.24944 -7.35238 2.68173 12.91107 -2.56326 -4.97138 2.30927 5.63151
0.00531 0.57962 -0.00121 181.67055 0 -3.65771 7.62208 3.41222 -4.90154 -29.54193 5.71271 5.17031 21.71344 -21.02048 15.15488 9.4199 81.88494 -1.75893 -2.68524 23.3891 5.31988 -12.94406 8.0063 -81.07078 -3.56507 2.4579 -4.35179 8.60693 1.82904 -7.81493 -9.27357 -1.9043 -7.47478 -7.29723 2.67886 12.92038 -2.60036 -4.99071 2.29825 5.6284
0.00576 0.57965 -0.00128 181.57979 0 -3.68089 7.55312 3.48255 -4.9179 -29.40437 5.62757 5.09483 21.9791 -20.98767 15.36055 9.59089 81.86349 -1.80138 -2.84958 23.79086 5.36887 -13.92343 8.29316 -81.11011 -3.61671 2.6358 -4.27395 8.73516 3.32601 -7.89812 -9.23098 -1.32844 -8.86287 -7.30784 2.69983 12.96125 -2.52786 -5.02718 2.29157 5.61709
0.00622 0.57966 -0.00138 181.46321 0 -3.71457 7.4829 3.56476 -4.92632 -29.24058 5.54255 5.02641 22.24999 -20.95233 15.57483 9.77754 81.8373 -1.84445 -3.03723 24.17819 5.42477 -14.88104 8.59146 -81.11399 -3.66577 2.82783 -4.17621 8.90386 5.23142 -8.02155 -9.16914 -0.61014 -10.63416 -7.34238 2.72878 13.01427 -2.41554 -5.07061 2.2861 5.60286
0.00667 0.57968 -0.00147 181.35914 0 -3.74228 7.41414 3.63916 -4.93999 -29.08822 5.45923 4.95256 22.51848 -20.91714 15.78964 9.95718 81.81367 -1.88854 -3.21426 24.56636 5.47989 -15.83269 8.88445 -81.13664 -3.71718 3.01325 -4.08758 9.05022 6.89618 -8.12663 -9.12344 0.00116 -12.17938 -7.36631 2.75352 13.06185 -2.32111 -5.11179 2.27994 5.58967
0.00715 0.5797 -0.00153 181.25068 0 -3.7751 7.34088 3.72423 -4.94656 -28.93512 5.36796 4.88736 22.78801 -20.88555 15.98794 10.13722 81.78851 -1.92773 -3.3929 24.97892 5.52535 -16.8547 9.17949 -81.14969 -3.76412 3.20037 -3.99815 9.21311 8.79345 -8.23246 -9.04751 0.78683 -13.94307 -7.38989 2.78038 13.11009 -2.22582 -5.1498 2.27411 5.57742
0.00758 0.57972 -0.00167 181.14603 0 -3.79965 7.27725 3.7895 -4.96602 -28.77938 5.29373 4.80653 23.05628 -20.84648 16.22164 10.31975 81.76546 -1.97696 -3.57292 25.33762 5.59218 -17.72293 9.47173 -81.1736 -3.81939 3.38661 -3.90612 9.35126 10.3047 -8.34575 -9.02871 1.24846 -15.3443 -7.41892 2.80495 13.15902 -2.12486 -5.1953 2.26804 5.56296
